<svg width="19" height="19" viewBox="0 0 19 19" fill="none" xmlns="http://www.w3.org/2000/svg">
<path d="M9.73213 19C8.18873 19 6.81467 18.7904 5.60994 18.3712C4.40522 17.9569 3.38677 17.3474 2.55459 16.5428C1.72242 15.743 1.0886 14.7649 0.653163 13.6086C0.217721 12.4523 0 11.1369 0 9.66261C0 8.20756 0.217721 6.88741 0.653163 5.70217C1.09344 4.51693 1.73451 3.50032 2.57637 2.65234C3.41822 1.79954 4.44635 1.14429 5.66075 0.686573C6.87998 0.228858 8.26856 0 9.82647 0C11.2683 0 12.5552 0.209586 13.6874 0.628757C14.8244 1.04793 15.7872 1.64537 16.5758 2.42107C17.3693 3.19196 17.9717 4.1098 18.3829 5.17459C18.799 6.23456 19.0046 7.40776 18.9998 8.69418C19.0046 9.5807 18.9272 10.395 18.7675 11.1369C18.6079 11.8789 18.3563 12.5269 18.0128 13.081C17.6741 13.6303 17.229 14.0663 16.6774 14.3891C16.1259 14.7071 15.4582 14.8878 14.6744 14.9312C14.1132 14.9745 13.6584 14.9336 13.31 14.8083C12.9617 14.683 12.6956 14.4975 12.5117 14.2518C12.3327 14.0013 12.2166 13.7098 12.1633 13.3773H12.0763C11.9601 13.6664 11.7327 13.929 11.3941 14.1651C11.0554 14.3963 10.6417 14.577 10.1531 14.7071C9.66923 14.8324 9.15396 14.8782 8.60724 14.8444C8.03632 14.8107 7.49444 14.6782 6.98159 14.4469C6.47357 14.2157 6.0212 13.8808 5.62446 13.4424C5.23256 13.0039 4.92291 12.4619 4.69552 11.8163C4.47296 11.1707 4.35926 10.4239 4.35442 9.57588C4.35926 8.73754 4.4778 8.00761 4.71003 7.38608C4.94711 6.76455 5.25917 6.24179 5.64623 5.8178C6.03813 5.39381 6.47357 5.06137 6.95256 4.82046C7.43154 4.57956 7.91295 4.42538 8.39677 4.35793C8.94349 4.27602 9.46119 4.27602 9.94985 4.35793C10.4385 4.43984 10.8498 4.57233 11.1836 4.75542C11.5223 4.93851 11.7327 5.13605 11.815 5.34804H11.9166V4.53861H14.1882V11.5922C14.193 11.9247 14.268 12.1825 14.4131 12.3655C14.5583 12.5486 14.7542 12.6402 15.001 12.6402C15.3348 12.6402 15.613 12.4932 15.8356 12.1993C16.063 11.9054 16.2323 11.4549 16.3436 10.8479C16.4597 10.2408 16.5178 9.46748 16.5178 8.52796C16.5178 7.62216 16.3968 6.82718 16.1549 6.14302C15.9178 5.45404 15.584 4.86864 15.1534 4.38684C14.7276 3.90022 14.2317 3.50514 13.6656 3.2016C13.0995 2.89806 12.4851 2.67643 11.8223 2.53671C11.1642 2.39698 10.4869 2.32712 9.79019 2.32712C8.58546 2.32712 7.53315 2.51021 6.63323 2.87638C5.73332 3.23773 4.98339 3.74604 4.38345 4.40129C3.78351 5.05655 3.33355 5.82503 3.03358 6.70673C2.73845 7.58362 2.58846 8.54 2.58362 9.57588C2.58846 10.7178 2.74812 11.7296 3.06261 12.6113C3.38193 13.4881 3.85124 14.2253 4.47054 14.8227C5.08983 15.4202 5.85428 15.8731 6.76387 16.1814C7.67346 16.4898 8.71852 16.644 9.89905 16.644C10.4554 16.644 10.9997 16.603 11.532 16.5211C12.0642 16.444 12.5456 16.3477 12.9762 16.232C13.4068 16.1212 13.7527 16.0128 14.014 15.9068L14.7325 18.0027C14.4276 18.1761 14.014 18.3375 13.4914 18.4869C12.9738 18.6411 12.3883 18.7639 11.7352 18.8555C11.0868 18.9518 10.4192 19 9.73213 19ZM9.39829 12.4667C9.98856 12.4667 10.4579 12.3535 10.8062 12.127C11.1594 11.9006 11.411 11.5657 11.561 11.1225C11.7158 10.6744 11.7884 10.1227 11.7787 9.46748C11.7739 8.88931 11.6989 8.40028 11.5537 8.00038C11.4134 7.59566 11.1691 7.28972 10.8207 7.08254C10.4772 6.87055 9.99823 6.76455 9.38377 6.76455C8.84673 6.76455 8.38952 6.87777 8.01213 7.10422C7.63959 7.33067 7.35413 7.64866 7.15576 8.0582C6.96223 8.46291 6.86305 8.9399 6.85821 9.48916C6.86305 9.99987 6.9453 10.4841 7.10496 10.9418C7.26462 11.3947 7.52831 11.7633 7.89602 12.0475C8.26372 12.327 8.76448 12.4667 9.39829 12.4667Z" fill="#FCFCFC"/>
</svg>
