<svg width="20" height="20" viewBox="0 0 20 20" fill="none" xmlns="http://www.w3.org/2000/svg">
<path d="M5.99288 0.840786C7.54344 0.161443 9.24132 -0.113283 10.9272 0.0423779C12.6132 0.198039 14.2319 0.778986 15.6316 1.73072C14.4742 3.29871 13.0171 4.62181 11.3446 5.62345C9.93892 3.65141 8.11062 2.0175 5.99288 0.840786ZM9.96927 6.34939C8.51858 4.37124 6.59589 2.78682 4.37608 1.74025C2.43704 3.06184 1.02242 5.02005 0.377788 7.27496C1.51441 7.55242 2.68029 7.69247 3.85035 7.69211C5.96343 7.69413 8.05154 7.23592 9.96927 6.34939ZM20 9.39339C19.8449 6.83664 18.7115 4.43741 16.8345 2.69254C15.5714 4.38974 13.9893 5.82484 12.1768 6.91762C12.7045 7.83087 13.1411 8.79376 13.4802 9.79237C15.6037 9.218 17.8222 9.08225 20 9.39339ZM13.9048 11.2714C14.19 12.4838 14.3336 13.725 14.333 14.9704C14.3321 16.4253 14.1351 17.8735 13.7475 19.276C15.4486 18.5887 16.9284 17.4486 18.026 15.9795C19.1236 14.5105 19.797 12.7689 19.9728 10.9441C17.9494 10.6288 15.8824 10.7403 13.9048 11.2714ZM12.0145 10.2661C11.7043 9.357 11.3048 8.48076 10.8219 7.65023C8.64628 8.69326 6.26349 9.2334 3.85035 9.23057C2.57841 9.23099 1.31086 9.08131 0.0740659 8.78464C-0.127321 10.4285 0.0835249 12.0965 0.687631 13.6387C1.29174 15.1809 2.27015 16.5489 3.53483 17.6195C5.39785 14.2403 8.40372 11.6337 12.0145 10.2661ZM4.79198 18.5308C6.93887 19.8432 9.50208 20.2988 11.9703 19.8068C12.5142 18.2522 12.7923 16.6172 12.7931 14.9704C12.7931 13.8879 12.6726 12.8087 12.4338 11.7528C9.1579 13.0276 6.44703 15.432 4.79198 18.5308Z" fill="#FCFCFC"/>
</svg>
