<svg width="20" height="20" viewBox="0 0 20 20" fill="none" xmlns="http://www.w3.org/2000/svg">
<g clip-path="url(#clip0_405_181)">
<path fill-rule="evenodd" clip-rule="evenodd" d="M6.66699 10.0003C6.66699 8.15938 8.15938 6.66699 10.0003 6.66699C11.8412 6.66699 13.3337 8.15938 13.3337 10.0003C13.3337 11.8412 11.8412 13.3337 10.0003 13.3337C8.15938 13.3337 6.66699 11.8412 6.66699 10.0003Z" fill="#FCFCFC"/>
<path fill-rule="evenodd" clip-rule="evenodd" d="M10.0003 1.66699C10.4606 1.66699 10.8337 2.04009 10.8337 2.50033V4.16699C10.8337 4.62723 10.4606 5.00033 10.0003 5.00033C9.54008 5.00033 9.16699 4.62723 9.16699 4.16699V2.50033C9.16699 2.04009 9.54008 1.66699 10.0003 1.66699Z" fill="#FCFCFC"/>
<path fill-rule="evenodd" clip-rule="evenodd" d="M16.4222 3.57708C16.7477 3.90252 16.7477 4.43016 16.4222 4.7556L14.7556 6.42227C14.4302 6.7477 13.9025 6.7477 13.5771 6.42227C13.2517 6.09682 13.2517 5.56919 13.5771 5.24375L15.2437 3.57708C15.5692 3.25165 16.0968 3.25165 16.4222 3.57708Z" fill="#FCFCFC"/>
<path fill-rule="evenodd" clip-rule="evenodd" d="M15 10.0003C15 9.54008 15.3731 9.16699 15.8333 9.16699H17.5C17.9602 9.16699 18.3333 9.54008 18.3333 10.0003C18.3333 10.4606 17.9602 10.8337 17.5 10.8337H15.8333C15.3731 10.8337 15 10.4606 15 10.0003Z" fill="#FCFCFC"/>
<path fill-rule="evenodd" clip-rule="evenodd" d="M13.5771 13.5771C13.9025 13.2517 14.4302 13.2517 14.7556 13.5771L16.4222 15.2437C16.7477 15.5692 16.7477 16.0968 16.4222 16.4222C16.0968 16.7477 15.5692 16.7477 15.2437 16.4222L13.5771 14.7556C13.2517 14.4302 13.2517 13.9025 13.5771 13.5771Z" fill="#FCFCFC"/>
<path fill-rule="evenodd" clip-rule="evenodd" d="M10.0003 15C10.4606 15 10.8337 15.3731 10.8337 15.8333V17.5C10.8337 17.9602 10.4606 18.3333 10.0003 18.3333C9.54008 18.3333 9.16699 17.9602 9.16699 17.5V15.8333C9.16699 15.3731 9.54008 15 10.0003 15Z" fill="#FCFCFC"/>
<path fill-rule="evenodd" clip-rule="evenodd" d="M6.42227 13.5771C6.7477 13.9025 6.7477 14.4302 6.42227 14.7556L4.7556 16.4222C4.43016 16.7477 3.90252 16.7477 3.57708 16.4222C3.25165 16.0968 3.25165 15.5692 3.57708 15.2437L5.24375 13.5771C5.56919 13.2517 6.09682 13.2517 6.42227 13.5771Z" fill="#FCFCFC"/>
<path fill-rule="evenodd" clip-rule="evenodd" d="M1.66699 10.0003C1.66699 9.54008 2.04009 9.16699 2.50033 9.16699H4.16699C4.62723 9.16699 5.00033 9.54008 5.00033 10.0003C5.00033 10.4606 4.62723 10.8337 4.16699 10.8337H2.50033C2.04009 10.8337 1.66699 10.4606 1.66699 10.0003Z" fill="#FCFCFC"/>
<path fill-rule="evenodd" clip-rule="evenodd" d="M3.57708 3.57708C3.90252 3.25165 4.43016 3.25165 4.7556 3.57708L6.42227 5.24375C6.7477 5.56919 6.7477 6.09682 6.42227 6.42227C6.09682 6.7477 5.56919 6.7477 5.24375 6.42227L3.57708 4.7556C3.25165 4.43016 3.25165 3.90252 3.57708 3.57708Z" fill="#FCFCFC"/>
</g>
<defs>
<clipPath id="clip0_405_181">
<rect width="20" height="20" fill="white"/>
</clipPath>
</defs>
</svg>
