<svg width="20" height="21" viewBox="0 0 20 21" fill="none" xmlns="http://www.w3.org/2000/svg">
<path d="M17.0409 17.0722H14.0776V12.4229C14.0776 11.3142 14.0578 9.88699 12.5363 9.88699C10.9929 9.88699 10.7567 11.0949 10.7567 12.3422V17.0719H7.79337V7.51099H10.6382V8.81759H10.678C10.9627 8.32991 11.3741 7.92872 11.8684 7.65675C12.3627 7.38478 12.9214 7.25222 13.4849 7.27317C16.4884 7.27317 17.0422 9.2524 17.0422 11.8273L17.0409 17.0722ZM4.44969 6.20408C4.10957 6.20414 3.77707 6.10316 3.49423 5.9139C3.2114 5.72464 2.99094 5.45561 2.86072 5.14082C2.73051 4.82603 2.69639 4.47963 2.76268 4.14541C2.82898 3.8112 2.99271 3.50419 3.23317 3.2632C3.47362 3.02221 3.78001 2.85807 4.11359 2.79153C4.44716 2.725 4.79294 2.75905 5.10719 2.88939C5.42145 3.01974 5.69006 3.24051 5.87908 3.5238C6.06809 3.80709 6.16901 4.14017 6.16907 4.48091C6.16911 4.70716 6.12467 4.9312 6.03828 5.14025C5.9519 5.34929 5.82526 5.53924 5.6656 5.69925C5.50594 5.85926 5.31639 5.9862 5.10776 6.07282C4.89914 6.15944 4.67552 6.20404 4.44969 6.20408ZM5.93138 17.0722H2.96492V7.51099H5.93138V17.0722ZM18.5183 0.0013646H1.47582C1.08901 -0.00300868 0.71628 0.146651 0.439549 0.417456C0.162817 0.688261 0.00472088 1.05806 0 1.44558V18.5903C0.0045593 18.9781 0.162554 19.3481 0.439276 19.6192C0.715998 19.8903 1.08881 20.0402 1.47582 20.0361H18.5183C18.9061 20.041 19.2799 19.8914 19.5578 19.6204C19.8356 19.3493 19.9946 18.9788 20 18.5903V1.44435C19.9945 1.05605 19.8353 0.685836 19.5575 0.415037C19.2797 0.144238 18.9059 -0.00499355 18.5183 0.000127582" fill="#171717"/>
</svg>
